<svg width="63" height="70" viewBox="0 0 63 70" fill="none" xmlns="http://www.w3.org/2000/svg">
<path fill-rule="evenodd" clip-rule="evenodd" d="M28.9932 0.446709C30.372 -0.0733663 31.8785 -0.141167 33.2978 0.252977L33.8988 0.446709L58.3567 9.69302C59.5969 10.1618 60.6793 10.9762 61.4779 12.0414C62.2765 13.1066 62.7584 14.3786 62.8675 15.7093L62.8919 16.2905V35.1811C62.8918 40.8889 61.3631 46.4908 58.4672 51.3954C55.5712 56.3001 51.4155 60.3255 46.4387 63.0468L45.5093 63.5365L33.7904 69.4435C33.1452 69.7683 32.4404 69.9554 31.7201 69.9929C30.9999 70.0305 30.2797 69.9178 29.6046 69.6619L29.1015 69.4435L17.3826 63.5365C12.3185 60.9837 8.03191 57.1 4.97547 52.2951C1.91902 47.4903 0.206078 41.9426 0.0174704 36.2378L0 35.1811V16.2905C2.03178e-05 14.9559 0.376047 13.6489 1.0843 12.5214C1.79256 11.3939 2.80392 10.4925 4.00063 9.92197L4.53521 9.69302L28.9932 0.446709ZM43.4409 23.1098L27.3755 39.3059L21.1981 33.0782C20.5425 32.4178 19.6534 32.0469 18.7266 32.0472C17.7997 32.0476 16.911 32.4191 16.2558 33.08C15.6007 33.741 15.2328 34.6372 15.2331 35.5716C15.2334 36.506 15.6019 37.402 16.2576 38.0624L24.6571 46.5303C25.0141 46.8903 25.4378 47.1759 25.9042 47.3707C26.3707 47.5655 26.8706 47.6658 27.3755 47.6658C27.8803 47.6658 28.3803 47.5655 28.8467 47.3707C29.3131 47.1759 29.7369 46.8903 30.0938 46.5303L48.3814 28.0905C48.7151 27.7656 48.9813 27.3769 49.1644 26.9472C49.3475 26.5174 49.4439 26.0552 49.4479 25.5875C49.4519 25.1198 49.3635 24.656 49.1879 24.2231C49.0122 23.7902 48.7527 23.3969 48.4247 23.0662C48.0966 22.7355 47.7065 22.4739 47.2771 22.2968C46.8477 22.1197 46.3876 22.0306 45.9237 22.0346C45.4598 22.0387 45.0013 22.1359 44.575 22.3205C44.1487 22.5051 43.7632 22.7734 43.4409 23.1098Z" fill="black" fill-opacity="0.6"/>
</svg>
