<svg width="83" height="100" viewBox="0 0 83 100" fill="none" xmlns="http://www.w3.org/2000/svg">
<path fill-rule="evenodd" clip-rule="evenodd" d="M44.1138 97.4432L44.0632 97.4524L43.7367 97.6133L43.6447 97.6317L43.5804 97.6133L43.2539 97.4524C43.2048 97.4371 43.168 97.4447 43.1435 97.4754L43.1251 97.5214L43.0469 99.4896L43.0699 99.5815L43.1159 99.6413L43.5942 99.9816L43.6631 100L43.7183 99.9816L44.1966 99.6413L44.2518 99.5677L44.2701 99.4896L44.192 97.526C44.1797 97.4769 44.1537 97.4493 44.1138 97.4432ZM45.3324 96.9236L45.2726 96.9327L44.4219 97.3604L44.3759 97.4064L44.3621 97.457L44.4449 99.4344L44.4679 99.4896L44.5047 99.5217L45.429 99.9494C45.4872 99.9647 45.5317 99.9525 45.5624 99.9126L45.5807 99.8483L45.4244 97.0247C45.4091 96.9695 45.3784 96.9358 45.3324 96.9236ZM42.0444 96.9327C42.0242 96.9205 41.9999 96.9165 41.9768 96.9216C41.9537 96.9268 41.9334 96.9406 41.9203 96.9603L41.8927 97.0247L41.7363 99.8483C41.7394 99.9034 41.7655 99.9402 41.8145 99.9586L41.8835 99.9494L42.8078 99.5217L42.8538 99.485L42.8722 99.4344L42.9504 97.457L42.9366 97.4018L42.8906 97.3558L42.0444 96.9327Z" fill="black" fill-opacity="0.6"/>
<path fill-rule="evenodd" clip-rule="evenodd" d="M38.1591 0.583189C39.9738 -0.0957816 41.9565 -0.184298 43.8245 0.330268L44.6155 0.583189L76.8056 12.6545C78.4377 13.2665 79.8624 14.3298 80.9135 15.7204C81.9646 17.111 82.5988 18.7716 82.7423 20.5089L82.7745 21.2676V45.9298C82.7744 53.3815 80.7624 60.6949 76.9509 67.098C73.1395 73.5011 67.67 78.7565 61.1198 82.3092L59.8966 82.9485L44.4729 90.6603C43.6237 91.0843 42.6961 91.3285 41.7481 91.3775C40.8002 91.4266 39.8523 91.2795 38.9638 90.9454L38.3016 90.6603L22.878 82.9485C16.2128 79.6158 10.5711 74.5454 6.5484 68.2726C2.52569 61.9997 0.271227 54.7572 0.0229935 47.3094L0 45.9298V21.2676C2.6741e-05 19.5254 0.49493 17.8189 1.4271 16.347C2.35926 14.8751 3.69034 13.6982 5.26538 12.9534L5.96896 12.6545L38.1591 0.583189ZM57.1742 30.1705L36.0299 51.3148L27.8996 43.1845C27.0367 42.3222 25.8667 41.838 24.6468 41.8385C23.4269 41.8389 22.2572 42.3239 21.3949 43.1868C20.5326 44.0497 20.0485 45.2197 20.0489 46.4396C20.0493 47.6595 20.5343 48.8292 21.3972 49.6915L32.4522 60.7465C32.922 61.2164 33.4797 61.5893 34.0936 61.8436C34.7075 62.098 35.3654 62.2289 36.0299 62.2289C36.6944 62.2289 37.3524 62.098 37.9662 61.8436C38.5801 61.5893 39.1379 61.2164 39.6076 60.7465L63.6766 36.6729C64.1158 36.2487 64.4662 35.7413 64.7072 35.1802C64.9482 34.6192 65.075 34.0157 65.0803 33.4051C65.0856 32.7945 64.9693 32.189 64.7381 31.6239C64.5068 31.0587 64.1654 30.5453 63.7336 30.1135C63.3018 29.6817 62.7884 29.3403 62.2232 29.109C61.6581 28.8778 61.0526 28.7615 60.442 28.7668C59.8314 28.7721 59.2279 28.8989 58.6669 29.1399C58.1058 29.3809 57.5984 29.7313 57.1742 30.1705Z" fill="black" fill-opacity="0.6"/>
</svg>
