<svg width="80" height="80" viewBox="0 0 80 80" fill="none" xmlns="http://www.w3.org/2000/svg">
<path d="M13.3346 16.6666C11.5665 16.6666 9.87083 17.369 8.62059 18.6192C7.37035 19.8695 6.66797 21.5652 6.66797 23.3333V31.6666C6.66797 32.5507 7.01916 33.3985 7.64428 34.0236C8.2694 34.6488 9.11725 35 10.0013 35C11.3274 35 12.5992 35.5267 13.5368 36.4644C14.4745 37.4021 15.0013 38.6739 15.0013 40C15.0013 41.326 14.4745 42.5978 13.5368 43.5355C12.5992 44.4732 11.3274 45 10.0013 45C9.11725 45 8.2694 45.3511 7.64428 45.9763C7.01916 46.6014 6.66797 47.4492 6.66797 48.3333V56.6666C6.66797 58.4347 7.37035 60.1304 8.62059 61.3807C9.87083 62.6309 11.5665 63.3333 13.3346 63.3333H66.668C68.4361 63.3333 70.1318 62.6309 71.382 61.3807C72.6323 60.1304 73.3346 58.4347 73.3346 56.6666V48.3333C73.3346 47.4492 72.9834 46.6014 72.3583 45.9763C71.7332 45.3511 70.8854 45 70.0013 45C68.6752 45 67.4035 44.4732 66.4658 43.5355C65.5281 42.5978 65.0013 41.326 65.0013 40C65.0013 38.6739 65.5281 37.4021 66.4658 36.4644C67.4035 35.5267 68.6752 35 70.0013 35C70.8854 35 71.7332 34.6488 72.3583 34.0236C72.9834 33.3985 73.3346 32.5507 73.3346 31.6666V23.3333C73.3346 21.5652 72.6323 19.8695 71.382 18.6192C70.1318 17.369 68.4361 16.6666 66.668 16.6666H13.3346Z" fill="black" fill-opacity="0.6"/>
</svg>
