<svg width="80" height="80" viewBox="0 0 80 80" fill="none" xmlns="http://www.w3.org/2000/svg">
<g clip-path="url(#clip0_274_857)">
<path d="M22.2222 22.2222C22.8116 22.2222 23.3768 21.9881 23.7936 21.5714C24.2103 21.1546 24.4444 20.5894 24.4444 20V6.66668C24.4444 6.07731 24.2103 5.51208 23.7936 5.09533C23.3768 4.67858 22.8116 4.44446 22.2222 4.44446C21.6329 4.44446 21.0676 4.67858 20.6509 5.09533C20.2341 5.51208 20 6.07731 20 6.66668V20C20 20.5894 20.2341 21.1546 20.6509 21.5714C21.0676 21.9881 21.6329 22.2222 22.2222 22.2222Z" fill="black" fill-opacity="0.6"/>
<path d="M57.7769 22.2222C58.3663 22.2222 58.9315 21.9881 59.3483 21.5714C59.765 21.1546 59.9991 20.5894 59.9991 20V6.66668C59.9991 6.07731 59.765 5.51208 59.3483 5.09533C58.9315 4.67858 58.3663 4.44446 57.7769 4.44446C57.1875 4.44446 56.6223 4.67858 56.2056 5.09533C55.7888 5.51208 55.5547 6.07731 55.5547 6.66668V20C55.5547 20.5894 55.7888 21.1546 56.2056 21.5714C56.6223 21.9881 57.1875 22.2222 57.7769 22.2222Z" fill="black" fill-opacity="0.6"/>
<path d="M71.6662 13.3334H62.7773V20.0001C62.7773 21.2967 62.2622 22.5402 61.3453 23.457C60.4285 24.3739 59.185 24.8889 57.8884 24.8889C56.5918 24.8889 55.3483 24.3739 54.4314 23.457C53.5146 22.5402 52.9995 21.2967 52.9995 20.0001V13.3334H27.1106V20.0001C27.1106 21.2967 26.5955 22.5402 25.6787 23.457C24.7618 24.3739 23.5183 24.8889 22.2217 24.8889C20.9251 24.8889 19.6816 24.3739 18.7647 23.457C17.8479 22.5402 17.3328 21.2967 17.3328 20.0001V13.3334H8.44393C7.91509 13.3274 7.39042 13.4275 6.90094 13.6277C6.41146 13.828 5.96711 14.1244 5.59418 14.4994C5.22125 14.8744 4.92731 15.3204 4.72974 15.811C4.53217 16.3016 4.43498 16.8268 4.44393 17.3556V67.0889C4.4351 67.6084 4.5287 68.1245 4.71937 68.6078C4.91004 69.0911 5.19405 69.5321 5.55518 69.9056C5.91631 70.2791 6.34749 70.5779 6.82408 70.7847C7.30067 70.9916 7.81335 71.1025 8.33282 71.1112H71.6662C72.1856 71.1025 72.6983 70.9916 73.1749 70.7847C73.6515 70.5779 74.0827 70.2791 74.4438 69.9056C74.8049 69.5321 75.0889 69.0911 75.2796 68.6078C75.4703 68.1245 75.5639 67.6084 75.555 67.0889V17.3556C75.5639 16.8361 75.4703 16.32 75.2796 15.8367C75.0889 15.3534 74.8049 14.9124 74.4438 14.5389C74.0827 14.1654 73.6515 13.8667 73.1749 13.6598C72.6983 13.453 72.1856 13.3421 71.6662 13.3334ZM57.6439 36.8445L36.155 58.3334L24.4439 46.5334C23.9251 45.9627 23.644 45.2153 23.6583 44.4442C23.6727 43.6731 23.9812 42.9366 24.5209 42.3856C25.0605 41.8346 25.7904 41.5107 26.5611 41.4804C27.3317 41.45 28.0848 41.7154 28.6662 42.2223L36.1773 49.7334L53.3328 32.5778C53.6144 32.2962 53.9488 32.0728 54.3167 31.9204C54.6846 31.768 55.079 31.6896 55.4773 31.6896C55.8755 31.6896 56.2699 31.768 56.6378 31.9204C57.0058 32.0728 57.3401 32.2962 57.6217 32.5778C57.9033 32.8594 58.1267 33.1938 58.2791 33.5617C58.4315 33.9297 58.51 34.324 58.51 34.7223C58.51 35.1205 58.4315 35.5149 58.2791 35.8828C58.1267 36.2508 57.9033 36.5851 57.6217 36.8667L57.6439 36.8445Z" fill="black" fill-opacity="0.6"/>
</g>
<defs>
<clipPath id="clip0_274_857">
<rect width="80" height="80" fill="white"/>
</clipPath>
</defs>
</svg>
