<svg width="126" height="21" viewBox="0 0 126 21" fill="none" xmlns="http://www.w3.org/2000/svg">
<g clip-path="url(#clip0_4_28)">
<path d="M80.7 5.1001C77.94 5.1001 75.7 7.3401 75.7 10.1001C75.7 12.8601 77.94 15.1001 80.7 15.1001C83.46 15.1001 85.7 12.8601 85.7 10.1001C85.7 7.3401 83.46 5.1001 80.7 5.1001ZM80.7 12.1001C79.6 12.1001 78.7 11.2001 78.7 10.1001C78.7 9.0001 79.6 8.1001 80.7 8.1001C81.8 8.1001 82.7 9.0001 82.7 10.1001C82.7 11.2001 81.8 12.1001 80.7 12.1001Z" fill="#FFCE35"/>
<path d="M19.21 19.3497C19.21 19.5097 19.1 19.6297 18.87 19.6897C18.6 19.7597 17.75 19.7997 16.33 19.7997C15.03 19.7997 14.19 19.7597 13.81 19.6897C13.5 19.6297 13.3 19.4197 13.22 19.0697C12.91 17.7597 12.67 17.0597 12.5 16.9597C12.35 16.8997 11.13 16.8597 8.84001 16.8597C7.29001 16.8597 6.47001 16.8997 6.37001 16.9797C6.21001 17.1297 6.04001 17.6097 5.85001 18.4397C5.68001 19.1997 5.47001 19.6097 5.22001 19.6697C4.91001 19.7397 3.87001 19.7797 2.10001 19.7797C0.71001 19.7797 0.0100098 19.6497 0.0100098 19.3797C0.0100098 19.1397 1.04001 16.2297 3.10001 10.6397C5.32001 4.61969 6.54001 1.29969 6.73001 0.699687C6.84001 0.349687 6.97001 0.179688 7.11001 0.179688C7.36001 0.179688 7.74001 0.199687 8.25001 0.249687C8.76001 0.299687 9.15001 0.319687 9.41001 0.319687C9.67001 0.319687 10.02 0.299688 10.5 0.269688C10.98 0.239688 11.34 0.219687 11.57 0.219687C11.74 0.219687 11.9 0.369687 12.05 0.669688C12.5 1.62969 13.8 4.90969 15.96 10.5097C18.13 16.1497 19.21 19.0997 19.21 19.3397V19.3497ZM9.52001 6.88969C9.33001 7.28969 9.01001 8.15969 8.55001 9.49969C8.06001 10.9197 7.81001 11.7597 7.81001 11.9997C7.81001 12.1597 8.08001 12.2497 8.63001 12.2697C8.91001 12.2897 9.38001 12.2997 10.02 12.2997C10.62 12.2997 10.95 12.2297 11.02 12.0797C11.04 12.0297 11.05 11.9697 11.05 11.8897C11.05 11.5897 10.84 10.7597 10.42 9.39969C10.01 8.08969 9.71001 7.24969 9.52001 6.87969V6.88969Z" fill="#231F20"/>
<path d="M36.9001 19.55C36.9001 19.61 36.8101 19.66 36.6301 19.69C36.2801 19.74 35.4101 19.77 34.0201 19.77C32.8301 19.77 32.0201 19.74 31.5901 19.69C31.3901 19.66 31.2801 19.64 31.2501 19.62C31.2001 19.59 31.1301 19.5 31.0601 19.35C30.9201 18.99 30.7201 18.47 30.4601 17.76C30.1001 16.85 29.5501 15.5 28.7901 13.73C28.6301 13.37 28.2501 13.18 27.6601 13.14C27.9301 13.16 27.4601 13.17 26.2501 13.17C26.1101 13.17 26.0401 13.4 26.0401 13.87C26.0401 14.49 26.1001 15.41 26.2101 16.65C26.3201 17.89 26.3801 18.81 26.3801 19.43C26.3801 19.59 26.3401 19.68 26.2601 19.7C26.1301 19.7 26.0101 19.72 25.8801 19.73C25.3401 19.77 24.5001 19.78 23.3601 19.78C22.0601 19.78 21.2701 19.75 21.0101 19.7C20.7501 19.65 20.6101 19.5 20.6101 19.28C20.6101 18.28 20.6601 16.76 20.7501 14.74C20.8401 12.72 20.8901 11.2 20.8901 10.19C20.8901 6.32996 20.8001 3.32996 20.6301 1.16996V0.979961C20.6101 0.819961 20.7501 0.719961 21.0501 0.669961C21.3501 0.619961 22.7401 0.559961 25.2301 0.509961C26.9201 0.469961 28.2601 0.459961 29.2601 0.459961C31.3401 0.459961 33.0301 0.929961 34.3501 1.86996C35.8401 2.92996 36.5801 4.44996 36.5801 6.44996C36.5801 7.77996 36.3901 8.83996 36.0101 9.63996C35.6301 10.44 34.9201 11.2 33.8901 11.95C33.6801 12.1 33.5801 12.23 33.5801 12.36C33.5801 12.36 34.1401 13.49 35.2501 15.79C36.3601 18.09 36.9201 19.35 36.9201 19.59L36.9001 19.55ZM31.1601 7.28996C31.1601 6.17996 30.8001 5.40996 30.0701 4.97996C29.5001 4.64996 28.6201 4.48996 27.4201 4.48996C26.5501 4.48996 26.0901 4.61996 26.0401 4.88996C25.9901 5.19996 25.9601 6.08996 25.9601 7.56996C25.9601 7.77996 25.9601 8.08996 25.9701 8.49996C25.9801 8.90996 25.9801 9.21996 25.9801 9.41996C25.9801 9.46996 26.1301 9.50996 26.4201 9.55996C26.9801 9.63996 27.5601 9.67996 28.1701 9.67996C30.1701 9.67996 31.1601 8.88996 31.1601 7.29996V7.28996Z" fill="#231F20"/>
<path d="M51.7601 4.68982C51.7601 4.86982 51.6601 4.95982 51.4601 4.95982C51.1101 4.95982 49.7401 4.88982 47.3401 4.74982C47.2901 7.05982 47.2601 8.66982 47.2601 9.57982C47.2601 10.6598 47.3001 12.2698 47.3901 14.4298C47.4801 16.5898 47.5201 18.2098 47.5201 19.2798C47.5201 19.4498 47.4801 19.5598 47.4001 19.6098C47.3701 19.6298 47.2401 19.6498 47.0201 19.6798C46.4701 19.7498 45.6701 19.7898 44.6101 19.7898C43.4301 19.7898 42.6101 19.7498 42.1401 19.6798C41.8901 19.6298 41.7601 19.4898 41.7601 19.2598C41.7601 18.1798 41.8101 16.5698 41.9001 14.4198C41.9901 12.2698 42.0401 10.6598 42.0401 9.57982C42.0401 8.86982 42.0001 7.27982 41.9301 4.81982C40.1101 4.99982 38.6501 5.08982 37.5701 5.08982C37.4201 5.08982 37.3501 5.03982 37.3501 4.94982C37.3501 4.82982 37.4101 4.47982 37.5401 3.89982C37.6901 3.25982 37.7701 2.86982 37.7901 2.73982C37.8201 2.30982 37.8501 1.87982 37.8901 1.44982C37.9501 0.769824 38.0601 0.419824 38.2201 0.419824C38.2401 0.419824 38.3001 0.419824 38.4101 0.429824C39.8901 0.619824 42.0701 0.719824 44.9601 0.719824C45.7801 0.719824 47.2901 0.629824 49.5001 0.459824C50.6801 0.369824 51.2801 0.319824 51.2901 0.319824C51.4701 0.319824 51.5801 0.329824 51.6001 0.349824C51.6201 0.369824 51.6501 0.459824 51.6501 0.619824C51.6501 0.869824 51.6501 1.20982 51.6201 1.64982C51.6001 2.12982 51.5901 2.47982 51.5901 2.67982C51.5901 2.90982 51.6201 3.23982 51.6801 3.67982C51.7401 4.11982 51.7701 4.44982 51.7701 4.66982L51.7601 4.68982Z" fill="#231F20"/>
<path d="M69.19 16.5996C69.19 16.7496 69.09 16.9396 68.9 17.1696C67.22 19.1696 64.99 20.1596 62.21 20.1596C59.43 20.1596 57.06 19.1896 55.29 17.2496C53.57 15.3696 52.71 12.9996 52.71 10.1396C52.71 7.27957 53.55 5.01957 55.24 3.08957C57.01 1.06957 59.25 0.0595703 61.96 0.0595703C64.91 0.0595703 67.23 0.96957 68.91 2.77957C69.09 2.97957 69.18 3.15957 69.18 3.30957C69.18 3.47957 68.86 4.12957 68.23 5.23957C67.6 6.34957 67.2 6.97957 67.03 7.10957C66.96 7.17957 66.87 7.21957 66.76 7.21957C66.71 7.21957 66.49 7.03957 66.08 6.66957C65.59 6.22957 65.1 5.88957 64.63 5.63957C63.91 5.27957 63.16 5.08957 62.39 5.08957C61.05 5.08957 59.98 5.58957 59.18 6.58957C58.44 7.51957 58.07 8.66957 58.07 10.0396C58.07 11.4096 58.44 12.5896 59.18 13.5296C59.98 14.5496 61.05 15.0596 62.39 15.0596C63.18 15.0596 63.93 14.8896 64.65 14.5396C65.11 14.3096 65.59 13.9896 66.07 13.5796C66.47 13.2296 66.69 13.0596 66.74 13.0596C66.83 13.0596 66.92 13.1096 67.01 13.2096C67.16 13.3696 67.55 13.9396 68.2 14.9196C68.87 15.9296 69.2 16.4896 69.2 16.5896L69.19 16.5996Z" fill="#231F20"/>
<path d="M90.44 10.1198C90.44 12.9598 89.53 15.3498 87.72 17.2698C85.87 19.2198 83.53 20.1998 80.69 20.1998C77.85 20.1998 75.54 19.2198 73.68 17.2498C71.86 15.3298 70.95 12.9498 70.95 10.1298C70.95 7.30977 71.86 4.90977 73.68 2.97977C75.54 0.999766 77.88 0.00976562 80.69 0.00976562C83.5 0.00976562 85.82 0.999766 87.69 2.97977C89.52 4.92977 90.44 7.30977 90.44 10.1298V10.1198ZM85.26 10.0898C85.26 8.71977 84.84 7.55977 84.02 6.59977C83.15 5.59977 82.05 5.09977 80.7 5.09977C79.35 5.09977 78.33 5.61977 77.43 6.65977C76.56 7.65977 76.13 8.81977 76.13 10.1198C76.13 11.5098 76.54 12.6798 77.35 13.6098C78.21 14.5898 79.32 15.0698 80.7 15.0698C81.99 15.0698 83.08 14.5598 83.98 13.5298C84.84 12.5498 85.27 11.3998 85.27 10.0998L85.26 10.0898Z" fill="#231F20"/>
<path d="M109.54 9.99975C109.54 12.6797 108.68 14.9997 106.96 16.9697C105.44 18.7297 103.3 19.6497 100.55 19.7497C100.02 19.7697 98.57 19.7797 96.19 19.7797C95.74 19.7797 95.07 19.7697 94.17 19.7397C93.27 19.7097 92.6 19.6997 92.15 19.6997C91.89 19.6997 91.75 19.5997 91.75 19.3897C91.75 18.3897 91.79 16.8797 91.87 14.8697C91.95 12.8597 91.99 11.3497 91.99 10.3497C91.99 9.34975 91.95 7.72975 91.87 5.63975C91.79 3.54975 91.75 1.97975 91.75 0.939746C91.75 0.749746 91.88 0.629746 92.15 0.599746C92.8 0.529746 93.86 0.489746 95.34 0.489746C98.15 0.489746 99.97 0.529746 100.8 0.609746C102.96 0.829746 104.65 1.37975 105.87 2.24975C107.02 3.06975 107.93 4.21975 108.59 5.69975C109.23 7.08975 109.55 8.52975 109.55 10.0097L109.54 9.99975ZM104.3 9.99975C104.3 8.45975 103.84 7.19975 102.92 6.22975C101.99 5.21975 100.76 4.70975 99.23 4.70975C97.83 4.70975 97.12 4.89975 97.12 5.26975C97.12 5.80975 97.12 6.61975 97.09 7.69975C97.06 8.77975 97.06 9.58975 97.06 10.1297C97.06 10.6697 97.06 11.4497 97.09 12.5197C97.12 13.5897 97.12 14.3797 97.12 14.9197C97.12 15.3097 97.85 15.5097 99.31 15.5097C100.89 15.5097 102.13 14.9897 103.03 13.9397C103.88 12.9497 104.3 11.6397 104.3 10.0197V9.99975Z" fill="#231F20"/>
<path d="M125.66 15.4395C125.66 15.8295 125.58 16.5495 125.43 17.5995C125.27 18.7395 125.12 19.4195 124.99 19.6395C124.88 19.8095 124.73 19.8995 124.54 19.8995C124.46 19.8995 124.32 19.8895 124.13 19.8595C123.46 19.7695 121.52 19.7195 118.31 19.7195C117.61 19.7195 116.56 19.7195 115.18 19.7095C113.8 19.6995 112.76 19.6995 112.06 19.6995C111.76 19.6995 111.61 19.5695 111.61 19.2995C111.61 18.2795 111.67 16.7495 111.78 14.6995C111.89 12.6495 111.95 11.1195 111.95 10.0995C111.95 9.07953 111.9 7.11953 111.79 4.28953C111.76 3.55953 111.71 2.46953 111.64 1.01953V0.829531C111.61 0.619531 111.72 0.519531 111.97 0.519531C112.64 0.519531 113.66 0.539531 115.01 0.569531C116.36 0.599531 117.38 0.619531 118.05 0.619531C118.72 0.619531 119.72 0.599531 121.06 0.569531C122.4 0.539531 123.4 0.519531 124.07 0.519531C124.54 0.519531 124.82 0.699531 124.89 1.04953C124.94 1.25953 125.01 1.89953 125.1 2.95953C125.19 4.01953 125.24 4.66953 125.24 4.88953C125.24 5.07953 125.15 5.17953 124.97 5.17953C124.92 5.17953 124.82 5.17953 124.68 5.16953C122.26 4.96953 120.08 4.86953 118.14 4.86953C117.66 4.86953 117.36 4.97953 117.25 5.20953C117.2 5.31953 117.18 5.66953 117.18 6.25953C117.18 6.84953 117.27 7.28953 117.45 7.48953C117.61 7.65953 117.9 7.74953 118.34 7.74953C118.43 7.74953 118.61 7.74953 118.87 7.72953C119.13 7.70953 119.35 7.70953 119.53 7.70953C120.68 7.70953 121.84 7.67953 123.02 7.60953C123.12 7.60953 123.37 7.57953 123.77 7.53953C124.08 7.49953 124.33 7.48953 124.51 7.48953C124.73 7.48953 124.84 7.58953 124.84 7.79953C124.84 7.60953 124.76 8.30953 124.59 9.88953C124.52 10.6195 124.48 11.3495 124.48 12.0795C124.48 12.2595 124.35 12.3495 124.08 12.3495L122.85 12.2095C122.33 12.1595 121.15 12.1295 119.3 12.1295H117.85C117.48 12.1295 117.26 12.2195 117.19 12.3995C117.19 12.4495 117.18 12.7295 117.18 13.2495C117.18 13.9395 117.23 14.3895 117.32 14.5895C117.48 14.9395 118.06 15.1395 119.07 15.2095C119.05 15.2095 119.72 15.2095 121.07 15.2095C121.55 15.2095 122.27 15.1695 123.22 15.0795C124.17 14.9895 124.89 14.9495 125.36 14.9495C125.56 14.9495 125.66 15.1095 125.66 15.4395Z" fill="#231F20"/>
</g>
<defs>
<clipPath id="clip0_4_28">
<rect width="125.66" height="20.19" fill="white"/>
</clipPath>
</defs>
</svg>
