<svg width="18" height="20" viewBox="0 0 18 20" fill="none" xmlns="http://www.w3.org/2000/svg">
<path fill-rule="evenodd" clip-rule="evenodd" d="M6.23868 4.78458C6.23868 3.2467 7.48537 2 9.02325 2C10.5611 2 11.8078 3.2467 11.8078 4.78458C11.8078 6.32245 10.5611 7.56915 9.02325 7.56915C7.48537 7.56915 6.23868 6.32245 6.23868 4.78458ZM9.02325 0C6.38081 0 4.23868 2.14213 4.23868 4.78458C4.23868 7.42702 6.38081 9.56915 9.02325 9.56915C11.6657 9.56915 13.8078 7.42702 13.8078 4.78458C13.8078 2.14213 11.6657 0 9.02325 0ZM5.23868 11.3537C3.96973 11.3537 2.75275 11.8578 1.85547 12.7551C0.958189 13.6524 0.454102 14.8694 0.454102 16.1383V18.0306C0.454102 18.5829 0.901817 19.0306 1.4541 19.0306C2.00639 19.0306 2.4541 18.5829 2.4541 18.0306V16.1383C2.4541 15.3998 2.74748 14.6915 3.26968 14.1693C3.79189 13.6471 4.50016 13.3537 5.23868 13.3537H12.8078C13.5463 13.3537 14.2546 13.6471 14.7768 14.1693C15.299 14.6915 15.5924 15.3998 15.5924 16.1383V18.0306C15.5924 18.5829 16.0401 19.0306 16.5924 19.0306C17.1447 19.0306 17.5924 18.5829 17.5924 18.0306V16.1383C17.5924 14.8694 17.0883 13.6524 16.191 12.7551C15.2938 11.8578 14.0768 11.3537 12.8078 11.3537H5.23868Z" fill="black"/>
</svg>
