<svg width="20" height="15" viewBox="0 0 20 15" fill="none" xmlns="http://www.w3.org/2000/svg">
<path fill-rule="evenodd" clip-rule="evenodd" d="M1.5918 0.838379C1.03951 0.838379 0.591797 1.28609 0.591797 1.83838C0.591797 2.39066 1.03951 2.83838 1.5918 2.83838H18.6224C19.1747 2.83838 19.6224 2.39066 19.6224 1.83838C19.6224 1.28609 19.1747 0.838379 18.6224 0.838379H1.5918ZM1.5918 4.62296C1.03951 4.62296 0.591797 5.07067 0.591797 5.62296C0.591797 6.17524 1.03951 6.62296 1.5918 6.62296H18.6224C19.1747 6.62296 19.6224 6.17524 19.6224 5.62296C19.6224 5.07067 19.1747 4.62296 18.6224 4.62296H1.5918ZM0.591797 9.40753C0.591797 8.85524 1.03951 8.40753 1.5918 8.40753H18.6224C19.1747 8.40753 19.6224 8.85524 19.6224 9.40753C19.6224 9.95982 19.1747 10.4075 18.6224 10.4075H1.5918C1.03951 10.4075 0.591797 9.95982 0.591797 9.40753ZM1.5918 12.1921C1.03951 12.1921 0.591797 12.6398 0.591797 13.1921C0.591797 13.7444 1.03951 14.1921 1.5918 14.1921H18.6224C19.1747 14.1921 19.6224 13.7444 19.6224 13.1921C19.6224 12.6398 19.1747 12.1921 18.6224 12.1921H1.5918Z" fill="black"/>
</svg>
