<svg width="50" height="50" viewBox="0 0 50 50" fill="none" xmlns="http://www.w3.org/2000/svg">
<path d="M28.6042 43.5833C28.2379 44.2147 27.7122 44.7389 27.0796 45.1032C26.4471 45.4675 25.73 45.6593 25 45.6593C24.27 45.6593 23.5529 45.4675 22.9204 45.1032C22.2878 44.7389 21.7621 44.2147 21.3958 43.5833M37.5 17.3333C37.5 13.7979 36.1833 10.4062 33.8396 7.90625C31.4958 5.40625 28.3125 4 25 4C21.6875 4 18.5062 5.40417 16.1604 7.90625C13.8167 10.4062 12.5 13.7979 12.5 17.3333C12.5 32.8896 6.25 37.3333 6.25 37.3333H43.75C43.75 37.3333 37.5 32.8896 37.5 17.3333Z" stroke="black" stroke-width="3.125" stroke-linecap="round" stroke-linejoin="round"/>
</svg>
