<svg width="50" height="50" viewBox="0 0 50 50" fill="none" xmlns="http://www.w3.org/2000/svg">
<path d="M8.33203 39.3333V10.1667C8.33203 9.0616 8.77102 8.00179 9.55242 7.22039C10.3338 6.43899 11.3936 6 12.4987 6H40.4154C40.7469 6 41.0648 6.1317 41.2992 6.36612C41.5337 6.60054 41.6654 6.91848 41.6654 7.25V34.5708M12.4987 35.1667H41.6654M12.4987 43.5H41.6654" stroke="black" stroke-width="3.125" stroke-linecap="round"/>
<path d="M12.4987 43.5001C11.3936 43.5001 10.3338 43.0611 9.55242 42.2797C8.77102 41.4983 8.33203 40.4385 8.33203 39.3334C8.33203 38.2283 8.77102 37.1685 9.55242 36.3871C10.3338 35.6057 11.3936 35.1667 12.4987 35.1667" stroke="black" stroke-width="3.125" stroke-linecap="round" stroke-linejoin="round"/>
<path d="M18.75 14.3333H31.25" stroke="black" stroke-width="3.125" stroke-linecap="round"/>
</svg>
