<svg width="50" height="50" viewBox="0 0 50 50" fill="none" xmlns="http://www.w3.org/2000/svg">
<path d="M35.4149 24.4272C35.4149 23.7064 35.4149 23.3459 35.5232 23.0251C35.8378 22.0918 36.6691 21.7314 37.5024 21.3522C38.4357 20.9251 38.9024 20.7126 39.367 20.6751C39.892 20.6334 40.4191 20.7459 40.8691 20.998C41.4649 21.3314 41.8816 21.9689 42.3066 22.4855C44.2711 24.873 45.2545 26.0668 45.6128 27.3814C45.9045 28.4439 45.9045 29.5564 45.6128 30.6168C45.0899 32.5376 43.4336 34.1459 42.2066 35.6376C41.5795 36.398 41.2649 36.7793 40.8691 37.0022C40.4113 37.256 39.8886 37.3684 39.367 37.3251C38.9024 37.2876 38.4357 37.0751 37.5003 36.648C36.667 36.2689 35.8378 35.9084 35.5232 34.9751C35.4149 34.6543 35.4149 34.2939 35.4149 33.5751V24.4272ZM14.5816 24.4272C14.5816 23.5189 14.5566 22.7043 13.8232 22.0668C13.5566 21.8355 13.2024 21.6751 12.4961 21.3522C11.5607 20.9272 11.0941 20.7126 10.6295 20.6751C9.23989 20.5626 8.49197 21.5126 7.69197 22.4876C5.7253 24.873 4.74197 26.0668 4.38155 27.3834C4.09157 28.4424 4.09157 29.5599 4.38155 30.6189C4.90655 32.5376 6.56489 34.148 7.78989 35.6376C8.5628 36.5751 9.30239 37.4314 10.6295 37.3251C11.0941 37.2876 11.5607 37.0751 12.4961 36.648C13.2045 36.3272 13.5566 36.1647 13.8232 35.9334C14.5566 35.2959 14.5816 34.4814 14.5816 33.5751V24.4272Z" stroke="black" stroke-width="3.125" stroke-linecap="round" stroke-linejoin="round"/>
<path d="M41.6654 21.7083V18.5833C41.6654 10.5292 34.2029 4 24.9987 4C15.7945 4 8.33203 10.5292 8.33203 18.5833V21.7083M41.6654 36.2917C41.6654 45.6667 33.332 45.6667 24.9987 45.6667" stroke="black" stroke-width="3.125" stroke-linecap="round" stroke-linejoin="round"/>
</svg>
