<svg width="25" height="25" viewBox="0 0 25 25" fill="none" xmlns="http://www.w3.org/2000/svg">
<path d="M10 12.5H15M12.5 10V15M12.5 21.5C14.28 21.5 16.0201 20.9722 17.5001 19.9832C18.9802 18.9943 20.1337 17.5887 20.8149 15.9442C21.4961 14.2996 21.6743 12.49 21.3271 10.7442C20.9798 8.99836 20.1226 7.39472 18.864 6.13604C17.6053 4.87737 16.0016 4.0202 14.2558 3.67294C12.51 3.32567 10.7004 3.5039 9.05585 4.18509C7.41131 4.86628 6.00571 6.01983 5.01677 7.49987C4.02784 8.97991 3.5 10.72 3.5 12.5C3.5 13.94 3.838 15.3 4.44 16.507C4.893 17.418 4.263 18.647 4.023 19.544C3.96983 19.7424 3.96982 19.9513 4.02297 20.1497C4.07613 20.3481 4.18057 20.529 4.3258 20.6742C4.47103 20.8194 4.65194 20.9239 4.85033 20.977C5.04872 21.0302 5.25761 21.0302 5.456 20.977C6.353 20.737 7.582 20.107 8.493 20.561C9.73821 21.1793 11.1097 21.5007 12.5 21.5Z" stroke="black" stroke-width="1.5" stroke-linecap="round" stroke-linejoin="round"/>
</svg>
