<svg width="18" height="19" viewBox="0 0 18 19" fill="none" xmlns="http://www.w3.org/2000/svg">
<path fill-rule="evenodd" clip-rule="evenodd" d="M2 7.78082C2 5.02368 4.2351 2.78857 6.99225 2.78857C9.74939 2.78857 11.9845 5.02368 11.9845 7.78082C11.9845 10.538 9.74939 12.7731 6.99225 12.7731C4.2351 12.7731 2 10.538 2 7.78082ZM6.99225 0.788574C3.13053 0.788574 0 3.91911 0 7.78082C0 11.6425 3.13053 14.7731 6.99225 14.7731C8.63823 14.7731 10.1514 14.2043 11.3459 13.2527C11.3727 13.4651 11.4677 13.6705 11.6309 13.8336L15.7466 17.9494C16.1371 18.3399 16.7703 18.3399 17.1608 17.9494C17.5513 17.5588 17.5513 16.9257 17.1608 16.5352L13.0451 12.4194C12.8819 12.2563 12.6765 12.1613 12.4641 12.1345C13.4158 10.94 13.9845 9.4268 13.9845 7.78082C13.9845 3.91911 10.854 0.788574 6.99225 0.788574Z" fill="black"/>
</svg>
