<svg width="50" height="50" viewBox="0 0 50 50" fill="none" xmlns="http://www.w3.org/2000/svg">
<path d="M45.3125 21.5C45.7269 21.5 46.1243 21.3354 46.4174 21.0424C46.7104 20.7493 46.875 20.3519 46.875 19.9375V12.125C46.875 11.2962 46.5458 10.5013 45.9597 9.91529C45.3737 9.32924 44.5788 9 43.75 9H6.25C5.4212 9 4.62634 9.32924 4.04029 9.91529C3.45424 10.5013 3.125 11.2962 3.125 12.125V19.9375C3.125 20.3519 3.28962 20.7493 3.58265 21.0424C3.87567 21.3354 4.2731 21.5 4.6875 21.5C5.5163 21.5 6.31116 21.8292 6.89721 22.4153C7.48326 23.0013 7.8125 23.7962 7.8125 24.625C7.8125 25.4538 7.48326 26.2487 6.89721 26.8347C6.31116 27.4208 5.5163 27.75 4.6875 27.75C4.2731 27.75 3.87567 27.9146 3.58265 28.2076C3.28962 28.5007 3.125 28.8981 3.125 29.3125V37.125C3.125 37.9538 3.45424 38.7487 4.04029 39.3347C4.62634 39.9208 5.4212 40.25 6.25 40.25H43.75C44.5788 40.25 45.3737 39.9208 45.9597 39.3347C46.5458 38.7487 46.875 37.9538 46.875 37.125V29.3125C46.875 28.8981 46.7104 28.5007 46.4174 28.2076C46.1243 27.9146 45.7269 27.75 45.3125 27.75C44.4837 27.75 43.6888 27.4208 43.1028 26.8347C42.5167 26.2487 42.1875 25.4538 42.1875 24.625C42.1875 23.7962 42.5167 23.0013 43.1028 22.4153C43.6888 21.8292 44.4837 21.5 45.3125 21.5ZM43.75 30.6719V37.125H32.8125V32.4375H29.6875V37.125H6.25V30.6719C7.58749 30.3223 8.77135 29.5392 9.61629 28.445C10.4612 27.3508 10.9196 26.0074 10.9196 24.625C10.9196 23.2426 10.4612 21.8992 9.61629 20.805C8.77135 19.7108 7.58749 18.9277 6.25 18.5781V12.125H29.6875V16.8125H32.8125V12.125H43.75V18.5781C42.4125 18.9277 41.2287 19.7108 40.3837 20.805C39.5388 21.8992 39.0804 23.2426 39.0804 24.625C39.0804 26.0074 39.5388 27.3508 40.3837 28.445C41.2287 29.5392 42.4125 30.3223 43.75 30.6719Z" fill="black"/>
<path d="M29.6875 20.3125H32.8125V29.6875H29.6875V20.3125Z" fill="black"/>
</svg>
